HIERARCHY
ROOT Hips
{
  OFFSET 1.44925e-005 102.336 -0.101585
  CHANNELS 6 Xposition Yposition Zposition Zrotation Xrotation Yrotation
  JOINT LeftUpLeg
  {
    OFFSET 8.9458 -8.66707 0.101652
    CHANNELS 3 Zrotation Xrotation Yrotation
    JOINT LeftLeg
    {
      OFFSET 0 -44.4227 1.3727
      CHANNELS 3 Zrotation Xrotation Yrotation
      JOINT LeftFoot
      {
        OFFSET -0.253549 -42.0924 -1.46059
        CHANNELS 3 Zrotation Xrotation Yrotation
        JOINT LeftToes
        {
          OFFSET -0.04 -4.41509 8.4991
          CHANNELS 3 Zrotation Xrotation Yrotation
          End Site
          {
            OFFSET 0.08 -0.047448 9.77979
          }
        }
      }
    }
  }
  JOINT Spine
  {
    OFFSET 0 11.8905 0
    CHANNELS 3 Zrotation Xrotation Yrotation
    JOINT Spine1
    {
      OFFSET 0 25.6574 0.127663
      CHANNELS 3 Zrotation Xrotation Yrotation
      JOINT RightShoulder
      {
        OFFSET -8.99 -0.362252 -0.22
        CHANNELS 3 Zrotation Xrotation Yrotation
        JOINT RightArm
        {
          OFFSET -10.2827 -0.00338 0.322123
          CHANNELS 3 Zrotation Xrotation Yrotation
          JOINT RightForeArm
          {
            OFFSET -26.364 0.099144 -1.42434
            CHANNELS 3 Zrotation Xrotation Yrotation
            JOINT RightHand
            {
              OFFSET -22.0324 0.085362 1.02216
              CHANNELS 3 Zrotation Xrotation Yrotation
              End Site
              {
                OFFSET -13.3284 -0.6 1.50291
              }
            }
          }
        }
      }
      JOINT LeftShoulder1
      {
        OFFSET 8.99 -0.362252 -0.22
        CHANNELS 3 Zrotation Xrotation Yrotation
        JOINT LeftArm
        {
          OFFSET 10.2827 -0.00337999 0.322123
          CHANNELS 3 Zrotation Xrotation Yrotation
          JOINT LeftForeArm
          {
            OFFSET 26.2597 0.099144 -1.42434
            CHANNELS 3 Zrotation Xrotation Yrotation
            JOINT LeftHand
            {
              OFFSET 22.0902 0.085362 1.02216
              CHANNELS 3 Zrotation Xrotation Yrotation
              End Site
              {
                OFFSET 13.419 -0.6 1.50291
              }
            }
          }
        }
      }
      JOINT Head
      {
        OFFSET 0 8.73416 0.011341
        CHANNELS 3 Zrotation Xrotation Yrotation
        End Site
        {
          OFFSET -0.29 12.7742 2.51395
        }
      }
    }
  }
  JOINT RightUpLeg
  {
    OFFSET -8.9458 -8.66707 0.101652
    CHANNELS 3 Zrotation Xrotation Yrotation
    JOINT RightLeg
    {
      OFFSET 0 -44.4227 1.3727
      CHANNELS 3 Zrotation Xrotation Yrotation
      JOINT RightFoot
      {
        OFFSET 0.253549 -42.0924 -1.46059
        CHANNELS 3 Zrotation Xrotation Yrotation
        JOINT RightToes
        {
          OFFSET 0.04 -4.41509 8.4991
          CHANNELS 3 Zrotation Xrotation Yrotation
          End Site
          {
            OFFSET -0.08 -0.137448 9.77979
          }
        }
      }
    }
  }
}
MOTION
Frames:	11
Frame Time:	0.0333333
-5.51034 102.398 -0.0100434 -0.00342229 -0.0789315 -92.2091 0.347281 0.756015 2.72771 0.0724031 6.89812 22.1426 -4.02053 -10.9843 -0.0643657 -1.31886e-009 8.75233e-006 -1.47058e-008 -0.142133 -0.00516516 0.00417138 -0.0459574 -0.000164407 -0.00166497 0.253566 0.255474 -3.09098 -4.37854 -45.968 4.12039 8.54713 28.481 -5.90691 -4.85986 9.69115 0.401277 -0.556006 0.0367309 3.05517 2.901 -38.4565 -3.81003 -10.3618 24.7011 5.56945 5.82328 9.61819 -0.917488 0.0109615 0.0056569 -0.00106022 -0.420821 -0.427362 -2.89021 0.221456 7.64672 -13.9593 3.28528 -11.5784 -0.0858067 0.0462048 0.000530889 0.662642 
-5.49774 102.398 -0.0100434 -0.00350869 -0.0770437 -92.1921 0.348251 0.748329 2.72708 0.0793032 6.87166 22.1735 -4.01594 -10.9754 -0.0643638 -1.31886e-009 8.75233e-006 -1.47058e-008 -0.132475 -0.00347916 -0.0110454 -0.0651504 0.000149521 -0.0125266 0.274295 0.255476 -3.08159 -4.40614 -45.9759 4.10182 8.54251 28.5382 -5.88654 -4.87803 9.69047 0.4181 -0.476491 0.0367302 3.07787 2.80071 -38.5385 -3.87103 -10.3423 24.8011 5.60664 5.82328 9.61819 -0.917488 0.0579287 0.0381787 -0.00584536 -0.420447 -0.44158 -2.89022 0.226772 7.66143 -13.9713 3.27677 -11.5784 -0.0858067 0.0462048 0.000530889 0.662642 
-5.47365 102.398 -0.0100434 -0.0213502 -0.071297 -92.168 0.352453 0.73757 2.72792 0.0836392 6.86466 22.2031 -3.99449 -10.9634 -0.0643611 -1.31886e-009 8.75233e-006 -1.47058e-008 -0.112864 0.0254534 -0.040509 -0.0940031 -0.00787607 -0.0368111 0.27122 0.256207 -3.05554 -4.39399 -46.0006 4.11057 8.54108 28.5704 -5.87755 -4.95229 9.68674 0.4221 -0.380207 0.0367287 3.11916 2.67889 -38.6444 -3.94566 -10.3174 24.9294 5.65745 5.82328 9.61819 -0.917488 0.0991444 0.102121 -0.0126721 -0.415096 -0.440577 -2.89005 0.233868 7.67219 -14.0027 3.28491 -11.5771 -0.0858063 0.0462048 0.000530889 0.662642 
-5.44454 102.398 -0.0100434 -0.0542255 -0.0629268 -92.176 0.363352 0.734159 2.74375 0.081347 6.89593 22.2097 -3.97649 -10.9629 -0.064361 -1.31886e-009 8.75233e-006 -1.47058e-008 -0.103496 0.0905088 -0.0529987 -0.0848182 -0.0404671 -0.0522747 0.216058 0.258587 -3.0242 -4.33702 -45.9911 4.16027 8.56028 28.5369 -5.92095 -5.07155 9.67966 0.453351 -0.375109 0.0367277 3.14689 2.66431 -38.6739 -3.95827 -10.3092 24.9514 5.6665 5.82328 9.61819 -0.917488 0.0858541 0.155438 -0.0209315 -0.405523 -0.425916 -2.88612 0.23476 7.67474 -14.0091 3.30465 -11.5693 -0.0858039 0.0462048 0.000530889 0.662642 
-5.41467 102.398 -0.0110586 -0.0792269 -0.0550756 -92.2211 0.384948 0.736177 2.77594 0.0590556 6.92651 22.2074 -3.97255 -10.9747 -0.0643636 -1.31886e-009 8.75233e-006 -1.47058e-008 -0.126541 0.134245 -0.0355871 -0.0161002 -0.0459107 -0.047792 0.174423 0.260018 -3.01486 -4.32303 -45.9332 4.21998 8.59969 28.5032 -5.99402 -5.13733 9.67394 0.524344 -0.437065 0.0367276 3.15196 2.71692 -38.6423 -3.92007 -10.3087 24.8719 5.62198 5.82328 9.61819 -0.917488 0.0502424 0.141066 -0.0247168 -0.394411 -0.429224 -2.8718 0.228952 7.68515 -13.9766 3.29268 -11.5555 -0.0857997 0.0462048 0.000530889 0.662642 
-5.38696 102.398 -0.0159961 -0.0836867 -0.0525581 -92.2701 0.407066 0.731356 2.80887 0.0277001 6.92982 22.2151 -3.96613 -10.9822 -0.0643652 -1.31886e-009 8.75233e-006 -1.47058e-008 -0.170645 0.117017 -0.0100418 0.0650648 0.00239776 -0.0358651 0.210824 0.261193 -3.02936 -4.39828 -45.8827 4.25516 8.63366 28.511 -6.03975 -5.10682 9.67281 0.568292 -0.467717 0.0367276 3.14979 2.71916 -38.6237 -3.88464 -10.2983 24.8064 5.56642 5.82328 9.61819 -0.917488 0.0341551 0.0656338 -0.00576752 -0.385623 -0.459723 -2.85692 0.221569 7.70849 -13.9369 3.25222 -11.5484 -0.0857975 0.0462048 0.000530889 0.662642 
-5.36119 102.398 -0.0240702 -0.079338 -0.0568597 -92.2977 0.415147 0.711798 2.82317 0.0126043 6.93135 22.2307 -3.95158 -10.9735 -0.0643634 -1.31886e-009 8.75233e-006 -1.47058e-008 -0.204169 0.0907656 0.0012382 0.105115 0.0368657 -0.0309348 0.283031 0.262147 -3.04098 -4.49662 -45.8794 4.25816 8.64049 28.5534 -6.04539 -5.07942 9.66863 0.593465 -0.453954 0.0367278 3.14642 2.66907 -38.6303 -3.8707 -10.2894 24.827 5.55195 5.82328 9.61819 -0.917488 0.0233085 0.00168699 0.0330752 -0.38333 -0.49309 -2.84699 0.216543 7.73045 -13.9143 3.24264 -11.5505 -0.0857982 0.0462048 0.000530889 0.662642 
-5.33477 102.398 -0.0341836 -0.0794533 -0.0629035 -92.3085 0.414352 0.680297 2.822 0.0158789 6.95995 22.2396 -3.94896 -10.9584 -0.0643965 -1.31886e-009 8.75233e-006 -1.47058e-008 -0.229832 0.111971 0.00204656 0.1291 0.00496739 -0.0346473 0.307836 0.262909 -3.04462 -4.53398 -45.8972 4.25974 8.64331 28.6521 -6.06586 -5.11175 9.66442 0.713659 -0.475133 0.0367279 3.14178 2.66949 -38.6117 -3.85821 -10.3067 24.8878 5.58615 5.82328 9.61819 -0.917488 -0.0104256 -0.0202869 0.0518933 -0.382904 -0.514886 -2.83752 0.213126 7.74332 -13.9092 3.27546 -11.5513 -0.0857984 0.0462048 0.000530889 0.662642 
-5.30612 102.398 -0.0459694 -0.0744358 -0.0662102 -92.3132 0.420864 0.640833 2.82339 0.0144002 6.99324 22.2415 -3.96215 -10.9502 -0.0643736 -1.31886e-009 8.75233e-006 -1.47058e-008 -0.27994 0.141344 0.00297475 0.194544 -0.0395161 -0.0446502 0.291818 0.263505 -3.04506 -4.51937 -45.9062 4.29802 8.66672 28.7971 -6.14954 -5.082 9.66372 0.898462 -0.54713 0.0367283 3.13079 2.74208 -38.5595 -3.83146 -10.3415 24.9125 5.63444 5.82328 9.61819 -0.917488 -0.0387193 -0.0396701 0.026076 -0.375196 -0.547649 -2.82292 0.208514 7.76042 -13.9213 3.28451 -11.5461 -0.0857968 0.0462048 0.000530889 0.662642 
-5.27636 102.398 -0.0570257 -0.0482622 -0.0706139 -92.3185 0.43039 0.596893 2.82106 -2.93774e-005 6.98745 22.2573 -3.96401 -10.941 -0.0640868 -1.31886e-009 8.75233e-006 -1.47058e-008 -0.349694 0.115928 0.00516085 0.281879 -0.0374181 -0.0551562 0.295927 0.263963 -3.04349 -4.50905 -45.9184 4.36355 8.69175 28.8477 -6.26062 -4.92229 9.67114 0.926917 -0.58594 0.0367288 3.11737 2.79658 -38.5244 -3.79182 -10.3575 24.8871 5.66753 5.82328 9.61819 -0.917488 -0.0154376 -0.0659578 -0.01651 -0.365122 -0.61237 -2.80797 0.202096 7.78894 -13.9387 3.24505 -11.5361 -0.0861601 0.0462048 0.000530889 0.662642 
-5.24845 102.398 -0.0630696 -0.0107099 -0.0811544 -92.338 0.422863 0.561173 2.80843 -0.00668806 6.94113 22.3041 -3.94426 -10.9143 -0.0637634 -1.31886e-009 8.75233e-006 -1.47058e-008 -0.391441 0.0570572 0.01295 0.320843 -0.0179486 -0.0510987 0.301423 0.264312 -3.04112 -4.49548 -45.9548 4.40475 8.68579 28.7501 -6.31603 -4.80437 9.68226 0.785416 -0.557254 0.0367293 3.10294 2.79573 -38.526 -3.74496 -10.346 24.8373 5.68117 5.82328 9.61819 -0.917488 0.040214 -0.0480776 -0.0469444 -0.368072 -0.684986 -2.80136 0.196276 7.80839 -13.9258 3.22652 -11.5212 -0.0874047 0.0462048 0.000530889 0.662642 
